<?xml version="1.0" encoding="UTF-8"?>
<svg xmlns="http://www.w3.org/2000/svg" xmlns:xlink="http://www.w3.org/1999/xlink" width="84px" height="84px" viewBox="0 0 84 84" version="1.1">
<g id="surface1">
<path style=" stroke:none;fill-rule:nonzero;fill:rgb(0%,0%,0%);fill-opacity:1;" d="M 0 42 L 0 84 L 84 84 L 84 0 L 0 0 Z M 41.761719 13.214844 C 42.695312 13.503906 43.230469 14.59375 42.851562 15.488281 C 42.574219 16.152344 42.039062 16.511719 41.304688 16.519531 C 40.390625 16.53125 39.710938 15.929688 39.636719 15.0625 C 39.5625 14.148438 40.03125 13.476562 40.933594 13.199219 C 41.238281 13.109375 41.410156 13.117188 41.761719 13.214844 Z M 35.683594 14.890625 C 36.09375 15.101562 36.308594 15.757812 36.09375 16.160156 C 35.988281 16.355469 35.183594 16.859375 34.15625 17.375 C 33.328125 17.785156 31.6875 18.441406 30.046875 19 L 29.128906 19.320312 L 28.898438 19.144531 C 28.777344 19.046875 28.621094 18.835938 28.554688 18.671875 C 28.457031 18.398438 28.457031 18.335938 28.570312 18.085938 C 28.734375 17.742188 28.816406 17.703125 30.515625 17.0625 C 32.050781 16.480469 33.191406 15.964844 34.207031 15.382812 C 35.445312 14.675781 35.339844 14.707031 35.683594 14.890625 Z M 47.792969 15.054688 C 49.03125 15.9375 50.328125 16.5625 52.320312 17.226562 C 54.015625 17.792969 54.191406 17.914062 54.117188 18.53125 C 54.066406 19.007812 53.78125 19.277344 53.335938 19.277344 C 52.960938 19.277344 50.351562 18.40625 49.433594 17.972656 C 48.464844 17.53125 47.273438 16.816406 46.855469 16.4375 C 46.570312 16.183594 46.488281 16.046875 46.453125 15.773438 C 46.414062 15.445312 46.429688 15.398438 46.742188 15.09375 C 46.921875 14.914062 47.144531 14.765625 47.234375 14.765625 C 47.324219 14.765625 47.578125 14.898438 47.792969 15.054688 Z M 64.796875 17.539062 L 65.65625 18.34375 L 64.929688 20.46875 C 64.089844 22.945312 63.871094 23.410156 63.277344 23.945312 C 62.640625 24.527344 62.039062 24.734375 60.949219 24.734375 C 60.152344 24.734375 60.046875 24.714844 59.53125 24.46875 C 58.800781 24.117188 58.144531 23.492188 57.808594 22.8125 C 57.554688 22.296875 57.546875 22.230469 57.546875 21.289062 C 57.546875 20.328125 57.554688 20.285156 57.816406 19.777344 C 58.175781 19.097656 58.773438 18.507812 59.414062 18.210938 C 59.695312 18.078125 60.753906 17.726562 61.761719 17.429688 C 62.769531 17.136719 63.65625 16.859375 63.730469 16.816406 C 63.804688 16.773438 63.878906 16.742188 63.902344 16.734375 C 63.925781 16.734375 64.328125 17.09375 64.796875 17.539062 Z M 19.203125 17.6875 L 20 18.472656 L 20.394531 18.324219 C 20.695312 18.210938 21 18.171875 21.65625 18.179688 C 22.402344 18.179688 22.574219 18.203125 22.984375 18.390625 C 25.078125 19.359375 25.609375 22.164062 24.003906 23.804688 C 23.019531 24.8125 21.402344 25.0625 20.097656 24.40625 C 19.0625 23.886719 18.375 22.820312 18.316406 21.671875 C 18.292969 21.246094 18.324219 20.910156 18.40625 20.632812 L 18.539062 20.21875 L 17.679688 19.359375 C 17.203125 18.882812 16.816406 18.457031 16.816406 18.414062 C 16.816406 18.34375 18.285156 16.914062 18.375 16.898438 C 18.390625 16.898438 18.769531 17.25 19.203125 17.6875 Z M 42.945312 19.359375 C 46.460938 19.613281 50.195312 20.910156 53.304688 22.945312 C 55.855469 24.617188 58.316406 27.039062 59.921875 29.449219 C 61.851562 32.351562 63.140625 35.855469 63.542969 39.34375 C 63.707031 40.710938 63.65625 43.253906 63.453125 44.460938 C 63.269531 45.535156 62.820312 47.234375 62.417969 48.339844 C 62.054688 49.34375 60.777344 52.007812 60.578125 52.171875 C 60.441406 52.285156 59.980469 51.949219 58.210938 50.433594 C 58.167969 50.398438 58.339844 49.933594 58.636719 49.324219 C 59.292969 47.9375 59.988281 45.847656 60.261719 44.421875 C 60.457031 43.402344 60.480469 43.074219 60.488281 41.507812 C 60.488281 39.636719 60.425781 39.0625 59.996094 37.367188 C 59.644531 35.953125 59.242188 34.863281 58.570312 33.507812 C 56.585938 29.472656 53.566406 26.429688 49.539062 24.40625 C 47.683594 23.476562 45.503906 22.828125 43.273438 22.558594 C 42.304688 22.4375 39.980469 22.4375 39.160156 22.558594 C 36.59375 22.929688 34.503906 23.558594 32.730469 24.503906 C 30.703125 25.578125 29.121094 26.75 27.6875 28.226562 C 26.09375 29.867188 25.027344 31.386719 24.078125 33.34375 C 23.429688 34.683594 23.207031 35.257812 22.855469 36.480469 C 21.796875 40.164062 21.804688 43.484375 22.894531 47.25 C 24.40625 52.441406 28.367188 56.855469 33.609375 59.175781 C 36.042969 60.261719 38.6875 60.867188 40.933594 60.867188 C 42.507812 60.867188 44.730469 60.554688 46.214844 60.128906 L 46.78125 59.972656 L 48.160156 61.128906 C 48.921875 61.761719 49.546875 62.3125 49.546875 62.34375 C 49.546875 62.449219 47.996094 62.96875 46.765625 63.277344 C 43.5 64.097656 40.03125 64.199219 36.914062 63.566406 C 34.996094 63.171875 33.296875 62.582031 31.417969 61.648438 C 28.933594 60.414062 26.578125 58.703125 24.898438 56.914062 C 21.617188 53.417969 19.515625 48.75 19.03125 43.894531 C 18.925781 42.796875 18.925781 40.410156 19.03125 39.390625 C 19.320312 36.765625 20.179688 33.945312 21.441406 31.539062 C 22.589844 29.335938 23.65625 27.859375 25.257812 26.21875 C 28.605469 22.804688 32.28125 20.761719 36.914062 19.746094 C 38.800781 19.328125 40.746094 19.203125 42.945312 19.359375 Z M 44.171875 26.324219 C 46.339844 26.832031 48.128906 27.628906 49.875 28.875 C 50.726562 29.480469 51.925781 30.554688 51.925781 30.710938 C 51.925781 30.828125 49.859375 32.894531 49.742188 32.894531 C 49.710938 32.894531 49.472656 32.699219 49.21875 32.453125 C 48.523438 31.769531 47.398438 30.976562 46.429688 30.476562 C 44.601562 29.539062 43.207031 29.210938 41.121094 29.203125 C 37.890625 29.203125 34.804688 30.574219 32.433594 33.082031 C 30.894531 34.707031 29.777344 36.875 29.277344 39.210938 C 29.121094 39.933594 29.089844 40.328125 29.089844 41.671875 C 29.078125 43.476562 29.164062 44.109375 29.589844 45.558594 C 30.566406 48.921875 32.863281 51.515625 36.101562 52.902344 C 36.527344 53.082031 37.152344 53.320312 37.472656 53.417969 L 38.0625 53.609375 L 38.0625 55.265625 C 38.0625 56.183594 38.054688 56.929688 38.039062 56.929688 C 38.023438 56.929688 37.609375 56.816406 37.117188 56.683594 C 35.453125 56.214844 33.910156 55.503906 32.476562 54.542969 C 29.582031 52.605469 27.703125 50.152344 26.609375 46.882812 C 25.789062 44.421875 25.59375 42.125 25.972656 39.382812 C 26.199219 37.660156 26.628906 36.316406 27.480469 34.601562 C 29.71875 30.105469 33.894531 27.011719 38.84375 26.199219 C 39.292969 26.125 40.105469 26.101562 41.46875 26.125 C 43.117188 26.144531 43.558594 26.175781 44.171875 26.324219 Z M 17.964844 26.617188 C 18.144531 26.800781 18.171875 26.914062 18.195312 27.503906 C 18.277344 29.328125 17.808594 31.859375 16.890625 34.667969 C 16.242188 36.625 16.117188 36.832031 15.570312 36.832031 C 15.160156 36.832031 14.871094 36.636719 14.773438 36.289062 C 14.683594 35.960938 14.714844 35.832031 15.289062 34.125 C 16.117188 31.664062 16.464844 29.992188 16.539062 28.136719 C 16.5625 27.53125 16.621094 26.929688 16.667969 26.808594 C 16.773438 26.527344 17.195312 26.316406 17.515625 26.375 C 17.652344 26.398438 17.851562 26.511719 17.964844 26.617188 Z M 65.894531 26.675781 C 66.035156 26.867188 66.066406 27.085938 66.125 28.070312 C 66.222656 30.023438 66.667969 32.148438 67.429688 34.289062 C 68.035156 35.996094 68.027344 35.96875 67.972656 36.21875 C 67.871094 36.59375 67.570312 36.832031 67.160156 36.832031 C 66.699219 36.832031 66.519531 36.644531 66.207031 35.839844 C 65.222656 33.28125 64.558594 30.410156 64.425781 28.210938 C 64.34375 26.757812 64.535156 26.390625 65.328125 26.429688 C 65.65625 26.445312 65.765625 26.496094 65.894531 26.675781 Z M 55.535156 41.007812 C 55.535156 43.171875 54.960938 45.273438 53.84375 47.199219 C 52.789062 49.023438 50.957031 50.882812 49.128906 51.992188 C 48.839844 52.171875 48.621094 52.34375 48.644531 52.386719 C 48.703125 52.492188 50.734375 54.15625 51.859375 55.011719 C 52.386719 55.414062 53.640625 56.386719 54.648438 57.175781 C 55.648438 57.964844 57.480469 59.382812 58.695312 60.324219 C 59.914062 61.277344 61.121094 62.21875 61.382812 62.441406 L 61.851562 62.828125 L 61.089844 63.671875 C 60.664062 64.140625 60.1875 64.664062 60.023438 64.84375 L 59.726562 65.171875 L 59.496094 64.960938 C 59.375 64.84375 57.609375 63.460938 55.578125 61.875 C 53.550781 60.300781 50.941406 58.273438 49.792969 57.371094 C 48.644531 56.46875 47.183594 55.328125 46.554688 54.847656 C 45.921875 54.355469 45.289062 53.84375 45.15625 53.722656 L 44.914062 53.492188 L 44.140625 53.648438 C 43.714844 53.730469 42.96875 53.828125 42.476562 53.863281 L 41.589844 53.917969 L 41.589844 50.875 L 41.902344 50.828125 C 42.066406 50.800781 42.441406 50.761719 42.738281 50.726562 C 46.4375 50.367188 49.40625 48.496094 51.171875 45.414062 C 51.589844 44.691406 52.082031 43.527344 52.113281 43.1875 C 52.132812 43.023438 52.105469 43.023438 46.863281 43 L 41.589844 42.984375 L 41.589844 39.867188 L 55.535156 39.867188 Z M 14.839844 40.515625 C 15.363281 40.785156 15.75 41.425781 15.75 42.03125 C 15.75 42.394531 15.40625 43.074219 15.101562 43.335938 C 14.4375 43.886719 13.476562 43.835938 12.847656 43.207031 C 12.289062 42.640625 12.171875 42 12.5 41.292969 C 12.929688 40.382812 13.921875 40.046875 14.839844 40.515625 Z M 69.09375 40.367188 C 69.777344 40.554688 70.300781 41.269531 70.300781 42.007812 C 70.300781 42.84375 69.816406 43.46875 69.011719 43.648438 C 67.929688 43.902344 66.929688 43.140625 66.921875 42.058594 C 66.914062 41.328125 67.390625 40.636719 68.054688 40.398438 C 68.4375 40.261719 68.683594 40.253906 69.09375 40.367188 Z M 15.921875 47.167969 C 16.183594 47.316406 16.300781 47.667969 16.367188 48.523438 C 16.511719 50.605469 17.046875 52.613281 18.105469 55.085938 C 18.390625 55.757812 18.636719 56.4375 18.636719 56.585938 C 18.636719 57.144531 18.136719 57.511719 17.570312 57.371094 C 17.195312 57.28125 17.0625 57.042969 16.414062 55.414062 C 15.273438 52.5 14.683594 50.046875 14.683594 48.234375 C 14.683594 47.601562 14.699219 47.554688 14.921875 47.324219 C 15.175781 47.070312 15.601562 47.003906 15.921875 47.167969 Z M 67.773438 47.324219 C 68.011719 47.527344 68.035156 47.609375 68.070312 48.101562 C 68.117188 48.839844 67.960938 50.292969 67.707031 51.433594 C 67.265625 53.410156 66.011719 56.757812 65.535156 57.191406 C 65.101562 57.601562 64.5 57.445312 64.261719 56.871094 C 64.148438 56.609375 64.15625 56.550781 64.4375 55.878906 C 65.847656 52.484375 66.214844 51.136719 66.378906 48.890625 C 66.46875 47.585938 66.484375 47.527344 66.699219 47.308594 C 67.011719 47.003906 67.421875 47.003906 67.773438 47.324219 Z M 61.964844 57.152344 C 62.960938 57.945312 63.976562 58.757812 64.207031 58.957031 L 64.640625 59.324219 L 64.007812 60.007812 L 63.378906 60.6875 L 62.722656 60.136719 C 62.351562 59.832031 61.464844 59.121094 60.742188 58.546875 C 60.023438 57.980469 59.308594 57.40625 59.152344 57.273438 L 58.867188 57.035156 L 59.472656 56.363281 C 59.808594 56.003906 60.097656 55.699219 60.113281 55.699219 C 60.136719 55.699219 60.964844 56.347656 61.964844 57.152344 Z M 23.828125 59.726562 C 24.421875 59.949219 25.085938 60.554688 25.390625 61.171875 C 25.609375 61.605469 25.632812 61.71875 25.632812 62.46875 C 25.632812 63.195312 25.609375 63.335938 25.40625 63.746094 C 25.101562 64.371094 24.445312 64.976562 23.828125 65.207031 C 23.164062 65.460938 22.230469 65.421875 21.566406 65.117188 C 19.910156 64.363281 19.34375 62.335938 20.359375 60.816406 C 20.671875 60.359375 21.304688 59.859375 21.78125 59.6875 C 22.289062 59.503906 23.289062 59.523438 23.828125 59.726562 Z M 30.53125 64.507812 C 31.132812 64.664062 31.960938 64.910156 32.359375 65.050781 C 33.46875 65.429688 35.414062 66.421875 35.824219 66.8125 C 36.152344 67.125 36.175781 67.191406 36.175781 67.570312 C 36.175781 67.9375 36.144531 68.011719 35.921875 68.199219 C 35.542969 68.519531 35.289062 68.480469 34.503906 67.960938 C 33.394531 67.242188 32.148438 66.714844 30.203125 66.15625 C 28.734375 65.738281 28.546875 65.617188 28.546875 65.066406 C 28.546875 64.78125 28.597656 64.664062 28.785156 64.46875 C 28.925781 64.328125 29.113281 64.230469 29.234375 64.230469 C 29.351562 64.230469 29.933594 64.351562 30.53125 64.507812 Z M 53.78125 64.378906 C 54.207031 64.714844 54.253906 65.246094 53.917969 65.625 C 53.722656 65.828125 53.523438 65.902344 52.664062 66.117188 C 50.941406 66.550781 49.488281 67.160156 48.152344 68.003906 C 47.816406 68.21875 47.453125 68.421875 47.355469 68.445312 C 46.996094 68.5625 46.429688 68.0625 46.429688 67.632812 C 46.429688 67.28125 46.71875 66.90625 47.242188 66.570312 C 48.695312 65.640625 49.980469 65.082031 51.84375 64.566406 C 53.164062 64.207031 53.523438 64.164062 53.78125 64.378906 Z M 41.703125 67.027344 C 42.410156 67.199219 42.984375 67.929688 42.984375 68.628906 C 42.984375 69.078125 42.605469 69.800781 42.253906 70.039062 C 41.640625 70.441406 40.964844 70.457031 40.382812 70.078125 C 39.890625 69.765625 39.671875 69.382812 39.636719 68.78125 C 39.578125 67.914062 40.039062 67.28125 40.933594 67.011719 C 41.230469 66.921875 41.3125 66.929688 41.703125 67.027344 Z M 41.703125 67.027344 "/>
<path style=" stroke:none;fill-rule:nonzero;fill:rgb(0%,0%,0%);fill-opacity:1;" d="M 62.796875 19.007812 C 59.964844 19.859375 59.808594 19.933594 59.480469 20.613281 C 59.09375 21.417969 59.429688 22.4375 60.226562 22.855469 C 60.488281 22.992188 61.253906 23 61.582031 22.878906 C 61.828125 22.789062 62.304688 22.363281 62.433594 22.125 C 62.53125 21.945312 63.507812 18.851562 63.476562 18.828125 C 63.460938 18.816406 63.15625 18.898438 62.796875 19.007812 Z M 62.796875 19.007812 "/>
<path style=" stroke:none;fill-rule:nonzero;fill:rgb(0%,0%,0%);fill-opacity:1;" d="M 21.453125 19.910156 C 21 20 20.910156 20.03125 20.671875 20.230469 C 20.03125 20.769531 19.910156 21.753906 20.394531 22.371094 C 20.738281 22.804688 21.277344 23.066406 21.707031 23.027344 C 22.699219 22.929688 23.355469 22.066406 23.183594 21.125 C 23.117188 20.804688 22.65625 20.238281 22.320312 20.066406 C 22.066406 19.933594 21.671875 19.867188 21.453125 19.910156 Z M 21.453125 19.910156 "/>
<path style=" stroke:none;fill-rule:nonzero;fill:rgb(0%,0%,0%);fill-opacity:1;" d="M 22.273438 61.433594 C 21.84375 61.6875 21.714844 61.910156 21.679688 62.367188 C 21.625 63.082031 22.066406 63.589844 22.765625 63.605469 C 23.378906 63.625 23.902344 63.097656 23.894531 62.476562 C 23.886719 62.015625 23.683594 61.671875 23.296875 61.449219 C 22.917969 61.234375 22.589844 61.226562 22.273438 61.433594 Z M 22.273438 61.433594 "/>
</g>
</svg>
